<svg width="17" height="18" viewBox="0 0 17 18" fill="none" xmlns="http://www.w3.org/2000/svg">
<path d="M8.5 11.24C10.9853 11.24 13 9.17156 13 6.62C13 4.06845 10.9853 2 8.5 2C6.01472 2 4 4.06845 4 6.62C4 9.17156 6.01472 11.24 8.5 11.24Z" stroke="#FFD700" stroke-width="1.5"/>
<path d="M5.51135 10.58L5.10185 12.1131C4.69814 13.6259 4.49628 14.3822 4.76564 14.796C4.86014 14.9412 4.98678 15.0574 5.134 15.1346C5.55314 15.3537 6.20114 15.0072 7.4965 14.3142C7.92721 14.0832 8.14321 13.9684 8.37207 13.9433C8.45714 13.9346 8.54285 13.9346 8.62792 13.9433C8.85678 13.9684 9.07214 14.0839 9.5035 14.3142C10.7989 15.0072 11.4469 15.3537 11.866 15.1346C12.0132 15.0574 12.1399 14.9412 12.2344 14.796C12.5044 14.3822 12.3019 13.6259 11.8981 12.1131L11.4886 10.58" stroke="#FFD700" stroke-width="1.5" stroke-linecap="round"/>
</svg>
