<svg width="16" height="16" viewBox="0 0 16 16" fill="none" xmlns="http://www.w3.org/2000/svg">
<path d="M8.00004 10.6666C10.5774 10.6666 12.6667 8.57731 12.6667 5.99998C12.6667 3.42265 10.5774 1.33331 8.00004 1.33331C5.42271 1.33331 3.33337 3.42265 3.33337 5.99998C3.33337 8.57731 5.42271 10.6666 8.00004 10.6666Z" stroke="#131927" stroke-width="1.5"/>
<path d="M4.90069 10L4.47603 11.5487C4.05736 13.0767 3.84803 13.8407 4.12736 14.2587C4.22536 14.4053 4.35669 14.5227 4.50936 14.6007C4.94403 14.822 5.61603 14.472 6.95936 13.772C7.40603 13.5387 7.63003 13.4227 7.86736 13.3973C7.95558 13.3885 8.04447 13.3885 8.13269 13.3973C8.37003 13.4227 8.59336 13.5393 9.04069 13.772C10.384 14.472 11.056 14.822 11.4907 14.6007C11.6434 14.5227 11.7747 14.4053 11.8727 14.2587C12.1527 13.8407 11.9427 13.0767 11.524 11.5487L11.0994 10" stroke="#131927" stroke-width="1.5" stroke-linecap="round"/>
</svg>
