<svg width="16" height="16" viewBox="0 0 16 16" fill="none" xmlns="http://www.w3.org/2000/svg">
<path fill-rule="evenodd" clip-rule="evenodd" d="M6.43335 2.66665L4.35935 7.33331H6.65735C7.11735 7.33331 7.44135 7.78331 7.29602 8.21998L6.19202 11.5313L11.0574 6.66665H9.34402C9.22924 6.66662 9.11637 6.63726 9.01613 6.58134C8.91589 6.52542 8.83161 6.4448 8.77129 6.34715C8.71097 6.24949 8.67662 6.13803 8.6715 6.02337C8.66638 5.9087 8.69065 5.79463 8.74202 5.69198L10.2547 2.66665H6.43335ZM5.38935 1.73331C5.49735 1.48998 5.73802 1.33331 6.00468 1.33331H11.3227C11.8227 1.33331 12.1487 1.85998 11.9247 2.30798L10.412 5.33331H12.6507C13.2507 5.33331 13.5507 6.05865 13.1267 6.48265L5.15802 14.4513C4.65535 14.954 3.81802 14.4366 4.04335 13.7626L5.74202 8.66665H3.34335C3.23118 8.66664 3.12079 8.63861 3.0222 8.58511C2.92362 8.53161 2.83996 8.45432 2.77883 8.36027C2.71769 8.26622 2.68103 8.15839 2.67215 8.04657C2.66328 7.93476 2.68248 7.82249 2.72802 7.71998L5.38935 1.73331Z" fill="#FFD700"/>
</svg>
